<?xml version="1.0"?>
<svg xmlns="http://www.w3.org/2000/svg" xmlns:xlink="http://www.w3.org/1999/xlink" version="1.1" id="Capa_1" x="0px" y="0px" width="75px" height="75px" viewBox="0 0 612 612" style="enable-background:new 0 0 612 612;" xml:space="preserve" class=""><g><g>
	<g>
		<g>
			<path d="M240.809,303.604l-3.438-0.46v-7.184l2.903-0.805c11.797-3.277,20.37-9.229,26.205-18.2     c5.871-9.017,8.847-20.054,8.847-32.802c0-11.353-1.665-20.995-4.95-28.663c-3.233-7.538-7.791-13.63-13.551-18.111     c-5.847-4.55-12.964-7.853-21.158-9.819c-8.438-2.026-17.761-3.054-27.713-3.054h-80.73v242.986h81.433     c14.193,0,26.171-1.915,35.604-5.688c9.356-3.739,17.033-8.789,22.818-15.007c5.752-6.188,9.882-13.515,12.275-21.772     c2.459-8.503,3.706-17.594,3.706-27.015c0-15.854-3.839-28.606-11.408-37.908C264.042,310.757,253.953,305.361,240.809,303.604z" data-original="#000000" class="active-path" data-old_color="#000000" fill="#FF8C00"/>
			<path d="M475.673,415.466c-0.956-7.155-1.676-17.572-2.142-30.96c-0.238-6.781-0.471-12.924-0.701-18.422     c-0.236-5.437-0.587-10.504-1.04-15.061c-1.308-13.105-4.623-22.619-9.855-28.274c-5.196-5.611-13.756-9.337-25.435-11.071     l-3.38-0.503v-7.331l3.138-0.667c13.324-2.836,22.848-8.99,29.109-18.813c6.35-9.966,9.57-23.142,9.57-39.16     c0-20.52-5.478-35.91-16.275-45.743c-10.913-9.922-26.568-14.956-46.531-14.956h-89.515V427.49h42.678V321.363h31.022     c11.768,0,20.38,3.346,25.599,9.938c4.953,6.258,7.722,14.826,8.23,25.465l1.412,48.221c0.216,4.631,0.675,9.278,1.358,13.746     c0.496,3.224,1.543,6.163,3.115,8.758h44.639c-2.347-3.082-4.004-7.018-4.953-11.775L475.673,415.466z" data-original="#000000" class="active-path" data-old_color="#000000" fill="#FF8C00"/>
			<path d="M306.003,0C137.272,0,0,137.272,0,306c0,168.729,137.272,306,306.003,306C474.729,612,612,474.729,612,306     C612,137.271,474.729,0,306.003,0z M286.968,387.227c-2.741,9.465-7.48,17.863-14.084,24.971     c-6.591,7.082-15.23,12.792-25.679,16.968c-10.371,4.152-23.34,6.257-38.546,6.257h-89.363V176.58h88.658     c10.575,0,20.521,1.1,29.563,3.272c9.301,2.23,17.434,6.021,24.177,11.27c6.831,5.313,12.204,12.459,15.971,21.244     c3.71,8.66,5.59,19.354,5.59,31.784c0,14.311-3.409,26.801-10.129,37.127c-4.787,7.355-11.286,13.109-19.4,17.19     c9.643,3.249,17.71,8.814,24.073,16.628c8.75,10.753,13.187,25.19,13.187,42.913     C290.984,368.177,289.633,378.007,286.968,387.227z M492.701,435.421H431.91l-1.188-1.617c-2.944-4.01-4.845-8.676-5.645-13.866     c-0.727-4.745-1.213-9.674-1.444-14.651l-1.412-48.212c-0.425-8.877-2.623-15.918-6.525-20.852     c-3.64-4.598-10.161-6.932-19.383-6.932h-23.095v106.13h-58.532V176.58h97.441c21.996,0,39.447,5.727,51.866,17.019     c12.52,11.4,18.867,28.762,18.867,51.606c0,17.552-3.638,32.16-10.812,43.42c-5.16,8.092-12.348,14.201-21.451,18.25     c7.215,2.453,12.956,5.96,17.151,10.488c6.433,6.952,10.444,18.011,11.928,32.873c0.471,4.701,0.829,9.921,1.072,15.508     c0.232,5.52,0.466,11.679,0.704,18.484c0.453,13.048,1.146,23.161,2.06,30.059c1.182,5.81,3.516,9.599,7.132,11.589l2.055,1.131     v8.414H492.701z" data-original="#000000" class="active-path" data-old_color="#000000" fill="#FF8C00"/>
		</g>
	</g>
</g></g> </svg>
